Patient4_TMGait_0pt5_02_right_06_EMG.mot
version=1
nRows=20
nColumns=33
inDegrees=no
endheader
time	1LAddLong	2LGlutMax	3LGlutMed	4LIliopsoas	5LSemiMemb	6LBicFemLong	7LRecFem	8LVastMed	9LVastLat	10LGasMed	11LTibAnt	12lTibPost	13LPeroneusLong	14LSol	15LExtDigLong	16LFlexDigLong	17RAddLong	18RGlutMax	19RGlutMed	20RIliopsoas	21RSemiMemb	22RBicFemLong	23RRecFem	24RVastMed	25RVastLat	26RGasMed	27RTibAnt	28RTibPost	29RPeroneusLong	30RSol	31RExtDigLong	32RFlexDigLong
8.74	-0.009003	-0.14358	0.016174	0.010986	-0.058289	-0.23056	0.037079	0.003967	-0.07782	0.037537	0.004425	0.006409	-0.018921	0	-0.015411	0.078583	-0.028229	-0.064392	0.30182	-0.024872	-0.17624	-0.001068	-0.27176	0.049591	-0.010223	-0.098114	0.010071	-0.048981	0.45441	-0.021515	-0.003967	-0.008698
8.741	0.010223	-0.12894	-0.005951	0.012512	-0.032349	-0.15579	0.003967	0.00412	-0.037384	0.032806	0.00473	0.011597	-0.026093	-0.019684	0.000916	0.01358	-0.034943	-0.075073	-0.006256	0.011749	0.11276	0.10712	-0.24185	0.031738	-0.010834	-0.018768	-0.038757	-0.215	-0.088654	-0.35477	-0.002441	-0.012817
8.742	0.011444	-0.11063	-0.035248	0.012665	-0.00351	-0.068054	-0.04364	0.00351	-0.046539	0.02121	0.027618	0.005188	-0.039063	0.005493	0.006714	-0.001221	-0.018005	-0.083466	0.12924	0.095978	0.27817	0.18524	-0.25528	0.020447	-0.003815	0.10361	-0.061035	-0.35294	-0.30838	-0.076599	0.001984	-0.002289
8.743	0.006714	-0.095978	-0.045929	-0.007324	0.042572	0.064697	-0.014496	-0.012512	-0.065613	0.023651	0.043793	-0.001984	-0.042419	0.011902	0.013733	-0.017242	0.007935	-0.03952	0.30838	0.18555	0.25803	0.22079	-0.27527	0.065002	0.00885	0.06897	-0.030823	0.18906	-0.30655	0.10574	0.003662	-0.021667
8.744	-0.00412	-0.088806	-0.034485	-0.023346	0.026703	0.16693	-0.05188	-0.001831	-0.10834	0.025024	0.036774	0.003204	-0.065002	0.037384	0.008087	-0.014801	0.026855	-0.026398	0.004883	0.16144	0.29205	0.1445	-0.25894	0.089569	-0.015106	-0.005798	-0.07019	-0.19974	-0.19455	0.16205	-0.001831	-0.022125
8.745	-0.019531	-0.075378	0.020142	-0.008698	0.03479	0.1236	-0.090027	0.004425	-0.10223	0.027924	0.032501	0.003662	-0.030823	0.042877	0.005798	-0.005798	0.041962	-0.12802	-0.054169	0.10101	0.32959	0.028687	-0.233	0.079346	-0.024414	-0.022888	-0.078735	0.009155	0.21042	0.48462	0.001221	-0.032349
8.746	-0.026703	-0.072937	0.0177	0.017548	0.095062	0.049896	-0.13275	0.011749	-0.076904	0.017242	-0.017548	0.005341	-0.001221	0.052032	-0.00885	-0.008087	0.045013	-0.17868	0.16602	0.048065	0.18875	0.002747	-0.22919	-0.021973	-0.014801	-0.037537	-0.055847	0.3305	0.084686	0.50644	0.000763	-0.029907
8.747	-0.028229	-0.041199	0.04303	0.014038	0.088654	0.068054	-0.15121	0.003052	-0.028229	0.028229	-0.045319	0.00885	-0.00885	0.066223	0.005646	-0.005798	0.04364	-0.22156	0.20721	0.019684	-0.10193	0.033875	-0.24658	-0.042572	-0.0354	-0.025635	-0.019073	0.17059	-0.064392	0.91049	0.001068	-0.024109
8.748	-0.029602	-0.027008	0.10696	0.014801	0.031281	0.00824	-0.1683	0.008392	0.033569	0.022888	-0.018005	0.006256	-0.028992	0.048981	0.008545	-0.011292	0.02243	-0.16174	0.11124	0.021057	-0.030823	-0.090332	-0.27069	-0.013885	-0.02121	0.12054	-0.046844	0.063934	0.13412	1.1185	-0.003967	-0.022125
8.749	-0.007935	0.03006	0.11017	0.014343	-0.005798	-0.016632	-0.16892	-0.006866	0.067291	0.023499	-0.002136	0.029755	-0.039978	0.052032	-0.000458	-0.003357	0.050659	-0.1944	0.22461	0.02655	0.30899	-0.24902	-0.24979	-0.012207	-0.009308	0.098877	-0.08255	0.025024	0.36102	1.0229	-0.003357	-0.013733
8.75	0.021362	0.071564	0.077209	-0.00412	-0.020142	0.027466	-0.103	-0.005493	0.10376	0.023041	0.001068	-0.000458	-0.070801	0.027466	0.006104	-0.007629	0.038757	-0.093384	0.062714	0.018768	0.21973	-0.32364	-0.27435	0.010223	-0.015564	0.031281	-0.02655	0.015717	0.20172	0.29419	0.000916	-0.022888
8.751	0.024261	0.066986	0.081482	0.002594	0.024414	-0.12222	-0.062561	-0.003204	0.14038	0.023499	0.005341	0.007935	-0.11444	0.006561	0.01236	0.001373	0.015869	-0.16235	0.14114	-0.007324	0.05722	-0.28534	-0.31891	0.027161	-0.005646	-0.014801	0.094604	-0.038605	-0.042419	-0.23773	0	-0.010834
8.752	0.022583	0.019531	0.12848	0.007782	0.063019	-0.32944	0.026245	0.008698	0.18585	0.015411	0.011139	-0.003204	-0.087738	0.058136	0.005798	0.017548	-0.011292	-0.112	0.18509	-0.009613	0.26901	-0.25726	-0.29068	0.081329	-0.001678	-0.007935	0.18662	-0.39261	-0.041199	-0.46768	-0.00061	-0.013428
8.753	0.005798	0.034943	0.12848	0.006256	-0.015106	-0.33569	0.029144	-0.001373	0.15243	-0.000305	-0.000763	0.006256	-0.040283	0.085297	-0.011139	0.027466	0.013733	-0.13687	0.16403	-0.006409	0.22598	-0.24445	-0.27527	0.004425	0.005035	-0.006256	0.18402	0.082092	-0.011902	-0.48447	-0.001526	-0.004883
8.754	-0.017548	0.053558	0.11063	0.009918	-0.050201	-0.19073	0.01297	0.010223	0.14832	0.013275	0.000916	0.004272	-0.037537	0.11231	-0.038757	0.019531	0.019226	-0.10742	0.1561	-0.040131	0.11292	-0.095062	-0.28229	0.0383	-0.014496	0.010376	0.11749	0.22873	-0.02243	-0.51453	-0.001373	-0.009308
8.755	-0.010681	0.080414	0.098114	0.010986	-0.083618	-0.17716	-0.032654	0.013123	0.18982	0.02655	0.000458	0.010986	0.024567	0.10422	-0.041199	0.052032	0.029297	-0.15686	0.079041	-0.031738	-0.000305	0.054169	-0.25925	-0.045319	-0.010834	-0.000305	-0.048065	0.063171	0.056	-0.44861	-0.002747	-0.00061
8.756	-0.00061	0.082245	0.082855	-0.001831	-0.035858	-0.22186	-0.059204	0.006256	0.22644	-0.011139	-0.011597	0.004425	0.10422	0.11612	-0.035248	0.048523	0.04425	-0.16739	-0.16235	-0.02655	-0.006409	0.13168	-0.3067	-0.090332	-0.017242	0.035553	-0.26398	-0.09079	0.031433	-0.13779	-0.001373	-0.003967
8.757	0.00824	0.04776	0.065765	0.005341	0.029144	-0.26215	-0.032959	0.010529	0.24414	0.030518	-0.00824	0.006866	0.10788	0.13077	-0.019379	0.065308	0.056763	-0.17654	0.029297	-0.063782	0.073853	0.071411	-0.2739	-0.097656	0.01297	0.031433	-0.22095	-0.12299	-0.068207	0.065002	-0.000458	-0.013123
8.758	0	0.033264	0.018921	-0.003357	0.064087	-0.19165	0.005035	0.006714	0.14175	0.086975	0.007629	0.010529	0.041504	-0.14099	-0.023651	0.065765	0.064545	-0.17456	0.31845	0.001526	0.27039	0.044861	-0.23666	-0.13473	-0.02655	0.014191	-0.010681	0.063629	-0.15198	0.024719	-0.00412	-0.013885
8.759	-0.009766	0.025024	0.010834	0.009003	0.033112	-0.054626	0.00351	-0.002441	-0.052032	0.09552	-0.042725	0.012665	0.053558	-0.44434	-0.012054	0.064392	0.069427	-0.078125	0.24857	-0.018005	0.20813	-0.011749	-0.26871	-0.1442	-0.025635	0.011139	0.12634	0.070648	-0.086517	-0.0737	0.000458	-0.011902
